<?xml version="1.0" standalone="no"?>
<!DOCTYPE svg PUBLIC "-//W3C//DTD SVG 20010904//EN"
 "http://www.w3.org/TR/2001/REC-SVG-20010904/DTD/svg10.dtd">
<svg version="1.0" xmlns="http://www.w3.org/2000/svg"
 width="500.000000pt" height="500.000000pt" viewBox="0 0 500.000000 500.000000"
 preserveAspectRatio="xMidYMid meet">
<metadata>
Created by potrace 1.14, written by Peter Selinger 2001-2017
</metadata>
<g transform="translate(0.000000,500.000000) scale(0.100000,-0.100000)"
fill="#000000" stroke="none">
<path d="M320 3242 c-6 -2 -10 -21 -10 -43 l0 -39 105 0 105 0 0 -670 0 -670
-105 0 -105 0 0 -40 0 -40 305 0 305 0 0 40 0 39 -97 3 -98 3 0 665 0 665 98
3 97 3 0 39 c0 22 -3 40 -7 40 -255 3 -586 4 -593 2z"/>
<path d="M1244 3241 c-2 -2 -4 -21 -4 -42 l0 -38 77 -3 77 -3 -280 -286 c-153
-157 -294 -301 -313 -321 l-34 -37 94 -107 c52 -59 144 -164 204 -234 61 -70
152 -175 203 -233 50 -58 92 -109 92 -111 0 -3 -33 -6 -72 -8 l-73 -3 -3 -37
-3 -38 285 0 286 0 0 40 0 40 -79 0 -79 0 -58 67 c-33 37 -184 209 -337 382
l-278 315 288 288 288 288 103 0 103 0 -3 41 -3 40 -238 2 c-131 1 -241 0
-243 -2z"/>
<path d="M3494 3241 c-2 -2 -4 -21 -4 -42 l0 -38 103 -3 102 -3 3 -667 2 -668
-105 0 -105 0 0 -40 0 -40 594 0 594 0 6 43 c3 23 8 138 12 255 l7 212 -36 0
c-34 0 -36 -2 -42 -37 -14 -84 -46 -197 -67 -240 -12 -24 -39 -60 -60 -78 -62
-57 -114 -67 -371 -72 l-227 -5 2 328 3 329 134 -2 c107 -2 139 -6 165 -20 43
-25 74 -93 82 -181 l7 -73 36 3 36 3 3 303 2 302 -38 0 -39 0 -6 -59 c-9 -80
-33 -137 -71 -164 -28 -20 -45 -22 -174 -26 l-142 -3 2 298 3 299 235 0 c260
0 298 -7 356 -57 46 -40 70 -90 92 -186 l18 -77 34 0 c25 0 35 4 33 15 -1 8
-5 99 -8 203 -4 103 -10 187 -14 187 -473 3 -1154 4 -1157 1z"/>
<path d="M2450 3227 c-120 -27 -216 -113 -250 -225 -11 -35 -20 -81 -20 -101
0 -50 32 -172 64 -245 14 -32 26 -64 26 -70 0 -6 -39 -31 -87 -56 -102 -52
-205 -148 -242 -223 -34 -72 -45 -169 -27 -256 18 -86 51 -144 115 -204 48
-45 156 -107 186 -107 8 0 15 -4 15 -10 0 -12 282 -14 296 -2 5 5 30 16 56 26
26 9 74 35 108 57 33 21 63 39 66 39 2 0 28 -18 57 -41 93 -74 136 -89 253
-89 95 0 107 2 163 31 34 17 79 48 101 68 40 36 40 36 22 60 l-19 23 -64 -33
c-53 -28 -75 -33 -129 -33 -78 0 -122 20 -204 95 l-56 51 37 52 c69 96 148
277 168 386 14 74 7 70 111 70 l94 0 0 35 0 35 -247 -2 -248 -3 0 -30 0 -30
108 -3 107 -3 0 -27 c0 -76 -96 -307 -158 -381 l-29 -35 -70 100 c-126 176
-284 437 -272 448 2 2 47 25 99 51 161 80 232 154 252 265 26 138 -43 262
-170 305 -59 21 -151 26 -212 12z m171 -90 c124 -83 112 -281 -24 -390 -52
-42 -129 -87 -148 -87 -17 0 -72 120 -94 207 -45 173 26 293 176 293 42 0 65
-6 90 -23z m-271 -699 c61 -116 150 -256 263 -411 88 -120 88 -118 9 -162
-187 -105 -395 -51 -490 128 -25 48 -27 61 -27 162 0 101 2 115 29 167 29 59
143 178 170 178 8 0 29 -28 46 -62z"/>
</g>
</svg>
